<?xml version="1.0" encoding="UTF-8"?>
<!DOCTYPE svg PUBLIC "-//W3C//DTD SVG 1.1//EN" "http://www.w3.org/Graphics/SVG/1.1/DTD/svg11.dtd">
<!-- Creator: CorelDRAW -->
<svg xmlns="http://www.w3.org/2000/svg" xml:space="preserve" width="6.82666in" height="6.82666in" style="shape-rendering:geometricPrecision; text-rendering:geometricPrecision; image-rendering:optimizeQuality; fill-rule:evenodd; clip-rule:evenodd"
viewBox="0 0 6.82666 6.82666"
 xmlns:xlink="http://www.w3.org/1999/xlink">
 <defs>
  <style type="text/css">
   <![CDATA[
    .fil5 {fill:none}
    .fil1 {fill:none;fill-rule:nonzero}
    .fil4 {fill:#C5C5C5}
    .fil0 {fill:#BDBDBD;fill-rule:nonzero}
    .fil2 {fill:#CFCFCF;fill-rule:nonzero}
    .fil3 {fill:#DFDFDF;fill-rule:nonzero}
   ]]>
  </style>
 </defs>
 <g id="Layer_x0020_1">
  <metadata id="CorelCorpID_0Corel-Layer"/>
  <g id="_537561504">
   <path id="_537562632" class="fil0" d="M1.171 1.00448c0.0720157,-0.0858307 0.134535,-0.131654 0.198839,-0.145925 0.080122,-0.0177953 0.144343,0.00940157 0.210098,0.0699488 0.131811,0.121378 0.260547,0.254524 0.392587,0.391091 0.152614,0.157839 0.309736,0.320346 0.478268,0.471252 0.237827,0.212965 0.482157,0.451787 0.642398,0.669591 0.184693,0.251035 0.262886,0.484567 0.122354,0.652055 -0.148937,0.177496 -0.474953,0.160472 -0.837744,0.0412087 -0.405307,-0.133244 -0.871189,-0.393217 -1.15957,-0.635193 -0.286114,-0.240075 -0.367614,-0.537972 -0.341559,-0.818921 0.0253307,-0.273154 0.154772,-0.528795 0.294327,-0.695106z"/>
   <path id="_537562608" class="fil1" d="M5.47364 4.47325c-0.000669291,-0.000531496 -0.00133071,-0.00107087 -0.00198819,-0.00162598"/>
   <path id="_537562584" class="fil0" d="M5.65566 5.82218l-9.05512e-005 0.000110236 0.000141732 0.00011811c-0.00144094,0.00171654 -0.00292913,0.00337008 -0.00445276,0.00497244 -0.0701693,0.0824803 -0.131449,0.126744 -0.194437,0.140724 -0.080126,0.0177953 -0.144339,-0.00940157 -0.210094,-0.0699488 -0.131823,-0.12139 -0.260571,-0.254547 -0.392626,-0.391126 -0.152602,-0.157831 -0.309717,-0.320327 -0.478228,-0.47122 -0.237831,-0.212965 -0.482157,-0.451783 -0.642402,-0.669591 -0.184693,-0.251031 -0.262886,-0.484563 -0.122354,-0.652051 0.148937,-0.177496 0.474953,-0.160472 0.837748,-0.0412087 0.405307,0.133244 0.871189,0.393217 1.15957,0.635193l-0.0683346 0.0816654 0.00262598 -0.00312992 0.0657126 -0.0785315 0.000106299 9.05512e-005 0.00011811 -0.000141732c0.00180709,0.00151969 0.00354724,0.00308661 0.00522835,0.00469685 0.281669,0.239268 0.361988,0.53513 0.336102,0.814268 -0.0253346,0.27315 -0.154772,0.528795 -0.294327,0.695106l-0.0816654 -0.0683346 0.00306693 0.00257087 0.0785945 0.0657677z"/>
   <path id="_537562032" class="fil0" d="M1.00448 5.65566c-0.0858307,-0.0720197 -0.131654,-0.134539 -0.145925,-0.198843 -0.0177953,-0.080126 0.00940157,-0.144339 0.0699488,-0.210094 0.121382,-0.131815 0.254535,-0.260555 0.391098,-0.392598 0.157843,-0.152614 0.320346,-0.309732 0.471244,-0.478256 0.212965,-0.237827 0.451783,-0.482157 0.669591,-0.642402 0.251039,-0.184693 0.484571,-0.262886 0.652055,-0.12235 0.177496,0.148937 0.160472,0.474953 0.0412087,0.837744 -0.133244,0.405307 -0.393217,0.871189 -0.635193,1.15957 -0.240075,0.286114 -0.537972,0.367614 -0.818921,0.341559 -0.273154,-0.0253307 -0.528795,-0.154772 -0.695106,-0.294327z"/>
   <path id="_537562656" class="fil0" d="M5.82218 1.171c0.0858307,0.0720197 0.131654,0.134539 0.145925,0.198843 0.0177953,0.080126 -0.00940157,0.144339 -0.0699488,0.210094 -0.121386,0.131815 -0.254539,0.260559 -0.39111,0.39261 -0.157839,0.152606 -0.320343,0.309728 -0.471236,0.478244 -0.212965,0.237827 -0.451783,0.482157 -0.669591,0.642402 -0.251031,0.184689 -0.484563,0.262886 -0.652051,0.12235 -0.177496,-0.148937 -0.160476,-0.474957 -0.0412087,-0.837748 0.133244,-0.405303 0.393213,-0.871185 0.635189,-1.15956 0.240075,-0.286114 0.537972,-0.367614 0.818921,-0.341559 0.273157,0.0253307 0.528799,0.154772 0.69511,0.294327z"/>
   <path id="_537562344" class="fil2" d="M3.00894 3.0742c0.0938386,-0.111831 0.223976,-0.175035 0.358504,-0.186803 0.13437,-0.0117559 0.273331,0.0278307 0.385016,0.121543 0.111831,0.0938386 0.175035,0.22398 0.186803,0.358508 0.0117559,0.13437 -0.0278346,0.273335 -0.121547,0.385016l-0.0816654 -0.0683346 0.00312992 0.00262598 0.0785315 0.0657126 -9.05512e-005 0.000106299 0.000141732 0.00011811c-0.00150787,0.00179921 -0.00306693,0.00352756 -0.00466929,0.00520079 -0.0934606,0.108445 -0.221547,0.169799 -0.353882,0.181374 -0.13437,0.0117559 -0.273331,-0.0278346 -0.385012,-0.121543l0.0683346 -0.0816654 -0.00262598 0.00312992 -0.0657126 0.0785315 -0.000106299 -9.05512e-005 -0.00011811 0.000141732c-0.00179921,-0.00150787 -0.00352756,-0.00306693 -0.00520079,-0.00466929 -0.108449,-0.0934646 -0.169803,-0.221555 -0.181378,-0.35389 -0.0117559,-0.13437 0.0278346,-0.273331 0.121547,-0.385012z"/>
   <path id="_537561336" class="fil1" d="M3.209 3.65262c0.000669291,0.000531496 0.00133071,0.00107087 0.00198819,0.00162598"/>
   <path id="_537561264" class="fil1" d="M3.65262 3.61767c0.000531496,-0.000669291 0.00107087,-0.00133071 0.00162598,-0.00198819"/>
   <path id="_537561648" class="fil3" d="M3.38578 3.0999c-0.0802717,0.00701969 -0.157787,0.0445709 -0.213504,0.110969 -0.0558386,0.0665472 -0.0794094,0.149579 -0.072374,0.230012 0.00687795,0.0786339 0.0430551,0.154618 0.106937,0.210059l0.00209843 0.00163386 6.29921e-005 5.11811e-005 0.00198819 0.00162598 0.000114173 9.44882e-005c0.0013189,0.00111417 0.00261417,0.00225984 0.0038937,0.00344094 0.0658386,0.0533937 0.14711,0.0758661 0.22589,0.0689764 0.0786299,-0.00687402 0.154614,-0.0430551 0.210051,-0.106933l0.00163386 -0.00209843 5.11811e-005 -6.29921e-005 0.00162598 -0.00198819 9.44882e-005 -0.000114173c0.00111417,-0.0013189 0.00225984,-0.00261417 0.00344094,-0.0038937 0.0533937,-0.0658386 0.0758701,-0.14711 0.0689803,-0.225894 -0.00702362,-0.0802756 -0.0445709,-0.157795 -0.110969,-0.213508 -0.0665433,-0.0558386 -0.149583,-0.0794055 -0.230016,-0.0723701z"/>
   <path id="_537561552" class="fil4" d="M1.25757 0.916862l1.72597 2.19009c0.00797244,-0.0111496 0.0164409,-0.0220787 0.0254016,-0.0327598 0.0750315,-0.0894173 0.173272,-0.147748 0.278406,-0.173551 -0.00419291,-0.131819 -0.0781772,-0.282563 -0.194161,-0.440209 -0.16024,-0.217803 -0.404571,-0.456626 -0.642398,-0.669591 -0.168531,-0.150906 -0.325654,-0.313413 -0.478268,-0.471252 -0.132039,-0.136567 -0.260776,-0.269713 -0.392587,-0.391091 -0.0657559,-0.0605472 -0.129976,-0.0877441 -0.210098,-0.0699488 -0.0372874,0.00827559 -0.0739803,0.0271614 -0.112268,0.0583071z"/>
   <path id="_537561840" class="fil4" d="M0.922378 5.56986l2.19009 -1.72597c-0.0111496,-0.00797244 -0.0220787,-0.0164409 -0.0327598,-0.0254016 -0.0894173,-0.0750315 -0.147748,-0.173272 -0.173551,-0.278406 -0.131819,0.00419291 -0.282563,0.0781772 -0.440209,0.194161 -0.217803,0.16024 -0.456626,0.404571 -0.669591,0.642398 -0.150906,0.168531 -0.313413,0.325654 -0.471252,0.478268 -0.136567,0.132039 -0.269713,0.260776 -0.391091,0.392587 -0.0605472,0.0657559 -0.0877441,0.129976 -0.0699488,0.210098 0.00827559,0.0372874 0.0271614,0.0739803 0.0583071,0.112268z"/>
   <path id="_537561528" class="fil4" d="M5.57537 5.90505l-1.72597 -2.19009c-0.00797244,0.0111496 -0.0164409,0.0220787 -0.0254016,0.0327598 -0.0750315,0.0894173 -0.173272,0.147748 -0.278406,0.173551 0.00419291,0.131819 0.0781772,0.282563 0.194161,0.440209 0.16024,0.217803 0.404571,0.456626 0.642398,0.669591 0.168531,0.150906 0.325654,0.313413 0.478268,0.471252 0.132039,0.136567 0.260776,0.269713 0.392587,0.391091 0.0657559,0.0605472 0.129976,0.0877441 0.210098,0.0699488 0.0372874,-0.00827559 0.0739803,-0.0271614 0.112268,-0.0583071z"/>
   <path id="_537561408" class="fil4" d="M5.91056 1.25206l-2.19009 1.72597c0.0111496,0.00797244 0.0220787,0.0164409 0.0327598,0.0254016 0.0894173,0.0750315 0.147748,0.173272 0.173551,0.278406 0.131819,-0.00419291 0.282563,-0.0781772 0.440209,-0.194161 0.217803,-0.16024 0.456626,-0.404571 0.669591,-0.642398 0.150906,-0.168531 0.313413,-0.325654 0.471252,-0.478268 0.136567,-0.132039 0.269713,-0.260776 0.391091,-0.392587 0.0605472,-0.0657559 0.0877441,-0.129976 0.0699488,-0.210098 -0.00827559,-0.0372874 -0.0271614,-0.0739803 -0.0583071,-0.112268z"/>
  </g>
  <rect class="fil5" width="6.82666" height="6.82666"/>
 </g>
</svg>
