<svg xmlns="http://www.w3.org/2000/svg" width="128" height="128" viewBox="0 0 128 128">
  <title>LAMP</title>
  <g>
    <path d="M90.72,66.618,82.444,22.473a1.75,1.75,0,0,0-1.72-1.428H49.276a1.75,1.75,0,0,0-1.72,1.428L39.28,66.618A1.749,1.749,0,0,0,41,68.69H59.574v19.1h-.361a6.258,6.258,0,0,0-6.251,6.25v.425H51.316a5.093,5.093,0,0,0-5.087,5.088v2.313a5.093,5.093,0,0,0,5.087,5.088H78.684a5.093,5.093,0,0,0,5.087-5.088V99.554a5.093,5.093,0,0,0-5.087-5.088H77.038v-.425a6.258,6.258,0,0,0-6.251-6.25h-.361V68.69H78.5v7.555a4.1,4.1,0,1,0,3.5,0V68.69h7a1.749,1.749,0,0,0,1.72-2.072ZM80.271,99.554v2.313a1.589,1.589,0,0,1-1.587,1.588H51.316a1.589,1.589,0,0,1-1.587-1.588V99.554a1.589,1.589,0,0,1,1.587-1.588H78.684A1.589,1.589,0,0,1,80.271,99.554Zm-6.733-5.513v.425H56.462v-.425a2.753,2.753,0,0,1,2.751-2.75H70.787A2.753,2.753,0,0,1,73.538,94.041Zm-6.612-6.25H63.074V68.69h3.852Zm1.75-22.6H43.108l7.621-40.645H79.271L86.892,65.19Z"/>
    <path d="M65,27.9a1.751,1.751,0,0,0-1.75,1.75V59.317a1.75,1.75,0,1,0,3.5,0V29.646A1.751,1.751,0,0,0,65,27.9Z"/>
    <path d="M56.94,27.907a1.742,1.742,0,0,0-1.93,1.549L51.76,59.127a1.75,1.75,0,0,0,3.48.381l3.25-29.671A1.75,1.75,0,0,0,56.94,27.907Z"/>
    <path d="M74.336,27.907a1.75,1.75,0,0,0-1.549,1.93l3.25,29.671a1.75,1.75,0,0,0,1.738,1.559,1.777,1.777,0,0,0,.192-.01,1.75,1.75,0,0,0,1.55-1.93l-3.25-29.671A1.745,1.745,0,0,0,74.336,27.907Z"/>
  </g>
</svg>
